<?xml version="1.0" encoding="utf-8"?>
<svg version="1.1" xmlns="http://www.w3.org/2000/svg" x="0px" y="0px" viewBox="0 0 50 50">
<path fill="#fff" d="M25,0C11.19,0,0,11.19,0,25c0,11.04,7.16,20.41,17.1,23.72c1.25,0.23,1.71-0.54,1.71-1.21c0-0.59-0.02-2.17-0.03-4.25c-6.95,1.51-8.42-3.35-8.42-3.35c-1.14-2.89-2.78-3.66-2.78-3.66c-2.27-1.55,0.17-1.52,0.17-1.52c2.51,0.18,3.83,2.58,3.83,2.58c2.23,3.82,5.85,2.72,7.28,2.08c0.23-1.62,0.87-2.72,1.59-3.34c-5.55-0.63-11.39-2.78-11.39-12.36c0-2.73,0.97-4.96,2.57-6.71c-0.26-0.63-1.11-3.17,0.25-6.62c0,0,2.1-0.67,6.87,2.56c1.99-0.55,4.13-0.83,6.26-0.84c2.12,0.01,4.26,0.29,6.26,0.84c4.77-3.24,6.87-2.56,6.87-2.56c1.36,3.44,0.51,5.98,0.25,6.62c1.6,1.75,2.57,3.98,2.57,6.71c0,9.6-5.85,11.72-11.41,12.34c0.9,0.77,1.7,2.3,1.7,4.63c0,3.34-0.03,6.04-0.03,6.86c0,0.67,0.45,1.45,1.72,1.2C42.84,45.41,50,36.04,50,25C50,11.19,38.81,0,25,0z"/>
</svg>
