<?xml version="1.0" encoding="utf-8"?>
<svg version="1.1" xmlns="http://www.w3.org/2000/svg" x="0px" y="0px" viewBox="0 0 424 100">
<path fill="#cba" d="M178.5,30l-35,70h-15l23.76-47.53c-7.62,7.76-18.19,17.24-28.76,22.53l-10-5c-3.47-6.94,5.1-23.51,10.67-33H105L88.5,70H71l16.5-33H70L53.5,70H36l16.5-33H35L18.5,70H1l16.5-33H0l3.5-7H21L36,0h17.5l-15,30H56L71,0h17.5l-15,30H91l15-30h17.5l-15,30h20h15c0,0-13.11,19.67-15.45,32.47C146.43,51.33,163.5,30,163.5,30H178.5z M291.5,30L284,45h-18l7.5-15h-15L242,63h-14.17c5.57-9.49,14.14-26.06,10.67-33l-10-5c-10.57,5.29-21.14,14.76-28.76,22.53L208.5,30h-15l-35,70h15l15-30c0,0,17.07-21.33,35.45-32.47C221.61,50.33,208.5,70,208.5,70h15l0,0l0,0h15l0,0h15l9-18h18l-9,18h15l20-40H291.5z M423.5,63l-3.5,7h-16.5h-15c0,0,13.11-19.67,15.45-32.47C385.57,48.67,368.5,70,368.5,70h-10h-7h-3h-12l14.82-23.97C344.09,54.07,330.3,68.1,316.5,75l-10-5c-5-15,12-57.5,50-40h15L355,63h8.72c7.8-9.79,23.85-27.54,44.78-38l10,5c3.47,6.94-5.1,23.51-10.67,33H423.5z M352.58,34.61c-18.78-7.51-31.76,12.86-32.06,28.18C333.77,54.92,346.41,41.61,352.58,34.61z"/>
</svg>
